<svg width="59" height="59" viewBox="0 0 59 59" fill="none" xmlns="http://www.w3.org/2000/svg">
<g clip-path="url(#clip0_35_31)">
<path d="M49.859 38.141L57.5399 30.4601C57.7945 30.2055 57.9376 29.8601 57.9376 29.5C57.9376 29.1399 57.7945 28.7945 57.5399 28.5399L49.859 20.859C49.6692 20.6685 49.4271 20.5387 49.1635 20.486C48.8998 20.4332 48.6264 20.46 48.3779 20.5628C48.1295 20.6657 47.9171 20.84 47.7678 21.0636C47.6186 21.2873 47.5391 21.5502 47.5394 21.8191L47.5413 28.1424L2.8137 28.1405V30.8595L47.5413 30.8576L47.5394 37.1809C47.5391 37.4498 47.6186 37.7127 47.7678 37.9364C47.9171 38.16 48.1295 38.3343 48.3779 38.4372C48.6264 38.54 48.8998 38.5668 49.1635 38.514C49.4271 38.4613 49.6692 38.3315 49.859 38.141Z" fill="#CC9E24"/>
</g>
<defs>
<clipPath id="clip0_35_31">
<rect width="40.734" height="40.734" fill="white" transform="translate(58.5 29.5) rotate(135)"/>
</clipPath>
</defs>
</svg>
