<svg width="28" height="28" viewBox="0 0 28 28" fill="none" xmlns="http://www.w3.org/2000/svg">
<path d="M4.66659 23.3334C4.02492 23.3334 3.47581 23.1051 3.01925 22.6486C2.5627 22.192 2.33403 21.6425 2.33325 21.0001V7.00008C2.33325 6.35841 2.56192 5.8093 3.01925 5.35275C3.47659 4.89619 4.0257 4.66753 4.66659 4.66675H23.3333C23.9749 4.66675 24.5244 4.89541 24.9818 5.35275C25.4391 5.81008 25.6674 6.35919 25.6666 7.00008V21.0001C25.6666 21.6417 25.4383 22.1912 24.9818 22.6486C24.5252 23.1059 23.9757 23.3342 23.3333 23.3334H4.66659ZM13.9999 15.1667L4.66659 9.33341V21.0001H23.3333V9.33341L13.9999 15.1667ZM13.9999 12.8334L23.3333 7.00008H4.66659L13.9999 12.8334ZM4.66659 9.33341V7.00008V21.0001V9.33341Z" fill="white"/>
</svg>
