<svg width="15" height="20" viewBox="0 0 15 20" fill="none" xmlns="http://www.w3.org/2000/svg">
<path d="M-1.33952e-05 0.999993L-1.4182e-05 19C0.000557061 19.1822 0.0508205 19.3609 0.145364 19.5167C0.239907 19.6725 0.375151 19.7995 0.536538 19.8842C0.697926 19.9688 0.879346 20.0079 1.06127 19.9971C1.24319 19.9863 1.41873 19.9261 1.56899 19.823L14.569 10.823C15.108 10.45 15.108 9.55199 14.569 9.17799L1.56899 0.177993C1.41904 0.0738181 1.24342 0.0127275 1.06119 0.00135848C0.878965 -0.0100105 0.697108 0.0287772 0.535379 0.113507C0.373651 0.198237 0.238233 0.325669 0.143843 0.481957C0.0494528 0.638246 -0.000301397 0.817413 -1.33952e-05 0.999993Z" fill="white"/>
</svg>
